<?xml version="1.0" encoding="iso-8859-1"?>
<!-- Generator: Adobe Illustrator 19.0.0, SVG Export Plug-In . SVG Version: 6.00 Build 0)  -->
<svg version="1.1" id="Layer_1" xmlns="http://www.w3.org/2000/svg" xmlns:xlink="http://www.w3.org/1999/xlink" x="0px" y="0px"
	 viewBox="0 0 297 297" style="enable-background:new 0 0 297 297;" xml:space="preserve">
<g>
	<g>
		<circle style="fill:#3C5768;" cx="148.5" cy="148.5" r="148.5"/>
	</g>
	<g>
		<path style="fill:#263D49;" d="M53.057,175.287l119.208,119.812c68.161-10.965,120.806-68.311,124.521-138.639l-38.672-38.672
			L53.057,175.287z"/>
	</g>
	<g>
		<path style="fill:#2ECC71;" d="M198.083,66H65.917C56.85,66,49.5,73.35,49.5,82.417v82.667c0,9.067,7.35,16.417,16.417,16.417
			H82.5v33l33-33h82.583c9.067,0,16.417-7.35,16.417-16.417V82.417C214.5,73.35,207.15,66,198.083,66z"/>
	</g>
	<g>
		<path style="fill:#BFF796;" d="M152.487,114.061h97.847c6.712,0,12.154,5.441,12.154,12.154v61.201
			c0,6.712-5.441,12.154-12.154,12.154h-12.277v24.431l-24.431-24.431h-61.139c-6.712,0-12.154-5.441-12.154-12.154v-61.201
			C140.333,119.502,145.774,114.061,152.487,114.061z"/>
	</g>
</g>
<g>
</g>
<g>
</g>
<g>
</g>
<g>
</g>
<g>
</g>
<g>
</g>
<g>
</g>
<g>
</g>
<g>
</g>
<g>
</g>
<g>
</g>
<g>
</g>
<g>
</g>
<g>
</g>
<g>
</g>
</svg>
