<?xml version="1.0" encoding="UTF-8"?>
<svg fill="rgb(249, 249, 250)" version="1.1" viewBox="0 0 512 512" xmlns="http://www.w3.org/2000/svg">
  <path d="m496.88 49.482-60.314 391.19c-1.4136 9.1734-6.9502 17.171-15.05 21.722-4.565 2.5624-9.6785 3.861-14.777 3.861-3.9468 0-7.8399-0.76843-11.582-2.3296l-115.54-48.157-47.931 80.76c-3.6754 6.2906-9.801 9.589-16.398 9.589-10.838 0-19.602-8.7644-19.602-19.602v-99.505c0-6.7052 2.2354-13.222 6.3537-18.509l204.75-263.29-296.78 239.78-76.7-31.042c-10.604-4.4293-17.79-14.419-18.497-26.764-0.7068-12.346 5.154-22.354 15.135-28.055l422.2-240.41c10.074-5.7572 22.505-5.2275 32.042 1.325 9.5371 6.5525 14.492 17.985 12.701 29.426z" stroke-width=".9424" />
</svg>
