<?xml version="1.0" encoding="iso-8859-1"?>
<!-- Generator: Adobe Illustrator 21.0.0, SVG Export Plug-In . SVG Version: 6.00 Build 0)  -->
<svg xmlns="http://www.w3.org/2000/svg" xmlns:xlink="http://www.w3.org/1999/xlink" version="1.1" id="Capa_1" x="0px" y="0px" viewBox="0 0 512 512" style="enable-background:new 0 0 512 512;" xml:space="preserve" width="512" height="512">
<g>
	<g>
		<g>
			<g>
				<g>
					<g>
						<g>
							<g>
								<g>
									<g>
										<g>
											<circle style="fill:#555A66;" cx="256" cy="256" r="256"/>
										</g>
									</g>
								</g>
							</g>
						</g>
					</g>
				</g>
			</g>
		</g>
	</g>
	<path style="fill:#333940;" d="M512,256c0-6.388-0.242-12.718-0.702-18.988L397.628,123.341L43.086,256.528l113.218,113.217   l0.29,48.063l94.125,94.125c1.757,0.036,3.516,0.067,5.281,0.067C397.385,512,512,397.385,512,256z"/>
	<g>
		<polygon style="fill:#AFB4C8;" points="156.594,417.808 397.628,123.341 167.579,307.6   "/>
	</g>
	<g>
		<polygon style="fill:#FFFFFF;" points="397.628,123.341 43.086,256.528 299.023,368.723   "/>
	</g>
	<g>
		<polygon style="fill:#E9EDF5;" points="397.628,123.341 255.905,176.581 255.905,349.821 299.023,368.723   "/>
	</g>
	<g>
		<polygon style="fill:#E9EDF5;" points="397.628,123.341 128.883,294.139 206.274,328.065   "/>
	</g>
	<g>
		<polygon style="fill:#DCE1EB;" points="255.905,213.412 255.905,274.966 397.628,123.341   "/>
	</g>
	<g>
		<polygon style="fill:#BEC3D2;" points="128.883,294.139 156.594,417.808 206.274,328.065   "/>
	</g>
</g>















</svg>
